<?xml version="1.0" encoding="UTF-8" standalone="no"?>
<svg
   xmlns:dc="http://purl.org/dc/elements/1.1/"
   xmlns:cc="http://creativecommons.org/ns#"
   xmlns:rdf="http://www.w3.org/1999/02/22-rdf-syntax-ns#"
   xmlns:svg="http://www.w3.org/2000/svg"
   xmlns="http://www.w3.org/2000/svg"
   xmlns:sodipodi="http://sodipodi.sourceforge.net/DTD/sodipodi-0.dtd"
   xmlns:inkscape="http://www.inkscape.org/namespaces/inkscape"
   id="svg4604"
   height="30.426868mm"
   width="14.552136mm"
   version="1.1"
   viewBox="0 0 14.552224 30.42695"
   inkscape:version="0.91+devel+osxmenu r12896"
   sodipodi:docname="logo.svg">
  <metadata
     id="metadata4528">
    <rdf:RDF>
      <cc:Work
         rdf:about="">
        <dc:format>image/svg+xml</dc:format>
        <dc:type
           rdf:resource="http://purl.org/dc/dcmitype/StillImage" />
        <dc:title />
      </cc:Work>
    </rdf:RDF>
  </metadata>
  <defs
     id="defs4526" />
  <sodipodi:namedview
     pagecolor="#ffffff"
     bordercolor="#666666"
     borderopacity="1"
     objecttolerance="10"
     gridtolerance="10"
     guidetolerance="10"
     inkscape:pageopacity="0"
     inkscape:pageshadow="2"
     inkscape:window-width="973"
     inkscape:window-height="568"
     id="namedview4524"
     showgrid="false"
     inkscape:zoom="1.4511101"
     inkscape:cx="-73.417496"
     inkscape:cy="18.272759"
     inkscape:window-x="221"
     inkscape:window-y="194"
     inkscape:window-maximized="0"
     inkscape:current-layer="svg4604"
     fit-margin-top="0"
     fit-margin-left="0"
     fit-margin-right="0"
     fit-margin-bottom="0"
     inkscape:snap-intersection-paths="true"
     inkscape:object-nodes="true"
     inkscape:object-paths="false"
     inkscape:snap-smooth-nodes="true">
    <inkscape:grid
       type="xygrid"
       id="grid5142" />
  </sodipodi:namedview>
  <g
     id="layer1"
     transform="translate(-21.167001,-29.771001)"
     inkscape:export-xdpi="249.60176"
     inkscape:export-ydpi="249.60176">
    <g
       id="g4516"
       style="fill-rule:evenodd">
      <path
         id="path5159"
         d="m 27.781,44.058 6.13e-4,15.875417 c 0,0 0.264584,0.264585 0.519146,0.264583 l 0.227915,0 c 0.311277,2e-6 0.575861,-0.264583 0.575861,-0.264583 L 29.1039,44.058 Z"
         inkscape:connector-curvature="0"
         style="fill:#cccccc"
         sodipodi:nodetypes="ccccccc" />
      <path
         id="path5161"
         d="m 27.781,44.058 c 0.79375,0 1.3229,4.2333 1.3229,4.2333 l 0,-4.2333 z"
         inkscape:connector-curvature="0"
         style="fill:#a7a7a7" />
      <path
         id="path5393"
         d="m 26.194,43.794 c -0.18106,1.0088 -1.0583,5.2917 0,5.5563 0.67423,0.14103 1.5875,-1.3229 1.5875,-1.3229 0,0 0.06396,1.929 0.79375,2.1167 0.78749,0.20251 1.8521,-1.5875 1.8521,-1.5875 0,0 1.0583,1.0583 1.3229,0.79375 0.79375,-0.79375 -0.79375,-5.5562 -0.79375,-5.5562 z"
         inkscape:connector-curvature="0"
         style="fill:#f1c40f" />
      <path
         id="path5395"
         d="m 27.517,42.206 c -0.74185,2.0017 -0.95467,3.9778 -0.97397,6.0895 0.36788,-1.7182 1.0963,-3.2547 1.9614,-4.7713 0.45539,1.6358 0.49421,3.2693 0.38978,4.9539 0.45895,-1.3305 0.95606,-2.3539 0.52208,-3.8128 0.60568,0.30653 1.2324,2.2852 1.2324,2.2852 0.14491,-1.7468 -0.2058,-3.2258 -1.2796,-4.7444 z"
         inkscape:connector-curvature="0"
         style="opacity:0.15" />
    </g>
    <circle
       id="path5157"
       cx="28.443001"
       cy="37.047001"
       r="7.276"
       style="fill:#f1c40f" />
    <path
       id="path5157-5"
       d="m 34.926,33.743 c 0.0024,0.02088 0.78308,6.6134 -5.6229,8.2739 -5.5636,1.4421 -7.3945,-1.8581 -7.7835,-2.7616 a 7.276,7.276 0 0 0 6.9236,5.0674 7.276,7.276 0 0 0 7.276,-7.276 7.276,7.276 0 0 0 -0.79323,-3.3037 z"
       inkscape:connector-curvature="0"
       style="opacity:0.1" />
  </g>
</svg>
